<?xml version="1.0" standalone="no"?><!DOCTYPE svg PUBLIC "-//W3C//DTD SVG 1.1//EN" "http://www.w3.org/Graphics/SVG/1.1/DTD/svg11.dtd"><svg t="1573616365110" class="icon" viewBox="0 0 1024 1024" version="1.1" xmlns="http://www.w3.org/2000/svg" p-id="2194" xmlns:xlink="http://www.w3.org/1999/xlink" width="200" height="200"><defs><style type="text/css"></style></defs><path d="M399.953 138.509H213.209c-41.256 0-74.698 33.442-74.698 74.698v186.744c0 41.256 33.442 74.698 74.698 74.698h186.744c41.256 0 74.698-33.442 74.698-74.698V213.207c0-41.255-33.442-74.698-74.698-74.698z m410.838 0H624.047c-41.256 0-74.698 33.442-74.698 74.698v186.744c0 41.256 33.442 74.698 74.698 74.698h186.744c41.256 0 74.698-33.442 74.698-74.698V213.207c0-41.255-33.442-74.698-74.698-74.698zM399.953 549.347H213.209c-41.256 0-74.698 33.446-74.698 74.694v186.748c0 41.252 33.442 74.701 74.698 74.701h186.744c41.256 0 74.698-33.45 74.698-74.701V624.041c0-41.248-33.442-74.694-74.698-74.694z m410.838 0H624.047c-41.256 0-74.698 33.446-74.698 74.694v186.748c0 41.252 33.442 74.701 74.698 74.701h186.744c41.256 0 74.698-33.45 74.698-74.701V624.041c0-41.248-33.442-74.694-74.698-74.694z" p-id="2195"></path></svg>