<svg t="1573625033489" class="icon" viewBox="0 0 1024 1024" version="1.1" xmlns="http://www.w3.org/2000/svg" p-id="10511" width="200" height="200"><path d="M858.112 65.664H545.664c-17.664 0-32 14.336-32 32s14.336 32 32 32h242.752L521.024 397.12a30.593 30.593 0 0 0 0 43.392c11.968 11.968 31.36 11.968 43.328 0l269.376-269.376v246.592c0 17.664 14.336 32 32 32s32-14.336 32-32v-320c-0.064-21.376-19.712-32.064-39.616-32.064z m-752.896 832h312.512c17.664 0 32-14.336 32-32s-14.336-32-32-32H174.912l267.456-267.456c12.032-11.968 12.032-31.36 0-43.328-11.968-11.968-31.36-11.968-43.328 0L129.664 792.256V545.664c0-17.664-14.336-32-32-32s-32 14.336-32 32v320c0 22.336 15.68 32 39.552 32z" p-id="10512"></path></svg>