<?xml version="1.0" standalone="no"?><!DOCTYPE svg PUBLIC "-//W3C//DTD SVG 1.1//EN" "http://www.w3.org/Graphics/SVG/1.1/DTD/svg11.dtd"><svg t="1573616634985" class="icon" viewBox="0 0 1024 1024" version="1.1" xmlns="http://www.w3.org/2000/svg" p-id="9643" xmlns:xlink="http://www.w3.org/1999/xlink" width="200" height="200"><defs><style type="text/css"></style></defs><path d="M944.37 319.673c0.28-2.042 0.28-4.118 0-6.165l-4.318-5.547L624.309 10.099l-5.553-4.314H156.243c-39.269-0.767-72.297 29.281-75.235 68.45v886.794c0 34.061 27.609 61.67 61.67 61.67h740.023c34.06 0 61.668-27.609 61.668-61.67V324.612c0.165-1.64 0.165-3.298 0.001-4.939zM574.359 97.668l185.003 185.008H574.359V97.668zM327.681 861.741c-18.896 18.331-48.934 18.331-67.837 0a49.959 49.959 0 0 1-13.565-35.151 46.267 46.267 0 0 1 13.565-33.918l156.644-156.638-154.176-154.783a46.27 46.27 0 0 1-13.566-33.919 49.961 49.961 0 0 1 13.566-35.151c18.901-18.329 48.939-18.329 67.835 0l188.709 189.936a42.557 42.557 0 0 1 12.332 35.77 53.639 53.639 0 0 1-14.798 36.999L327.681 861.741z m396.53 38.238H578.672c-27.243 0-49.331-22.088-49.331-49.336 0-27.244 22.088-49.331 49.331-49.331h148.624c27.248 0 49.336 22.087 49.336 49.331 0 27.248-22.088 49.336-49.336 49.336h-3.085z m0 0" p-id="9644"></path></svg>