<?xml version="1.0" standalone="no"?><!DOCTYPE svg PUBLIC "-//W3C//DTD SVG 1.1//EN" "http://www.w3.org/Graphics/SVG/1.1/DTD/svg11.dtd"><svg t="1573616406853" class="icon" viewBox="0 0 1102 1024" version="1.1" xmlns="http://www.w3.org/2000/svg" p-id="3050" xmlns:xlink="http://www.w3.org/1999/xlink" width="215.234375" height="200"><defs><style type="text/css"></style></defs><path d="M1097.086602 354.407014a50.48331 50.48331 0 0 0-30.715275-39.378557 46.702969 46.702969 0 0 0-17.326565-3.229042 53.712352 53.712352 0 0 0-32.290417 11.419782L850.576834 466.242117a131.209352 131.209352 0 0 1-186.654361-14.727581c-3.150285-3.859099-5.512998-7.875711-8.663282-11.498538l-0.787571-1.6539a140.423935 140.423935 0 0 1 29.927703-181.141363l166.965082-142.471619a49.616982 49.616982 0 0 0 16.538994-44.182742 51.03461 51.03461 0 0 0-29.140132-38.7485 395.990771 395.990771 0 0 0-417.412706 67.652361l-1.575142 1.1026A428.044916 428.044916 0 0 0 274.074758 528.460237a60.958006 60.958006 0 0 1-18.901708 60.564221l-1.575142 1.102599L57.492693 736.930318a168.38271 168.38271 0 0 0-32.290416 215.006922 156.726657 156.726657 0 0 0 108.684817 67.731119h1.575143l1.575142 0.5513a152.55253 152.55253 0 0 0 21.264421 3.229041l4.725427 0.5513a154.521458 154.521458 0 0 0 94.508537-37.645901l203.980926-153.891401a61.824335 61.824335 0 0 1 38.590986-13.624981 64.265805 64.265805 0 0 1 24.414705 4.882941 410.009537 410.009537 0 0 0 161.452084 33.31426 415.916321 415.916321 0 0 0 270.924474-100.415321 448.915551 448.915551 0 0 0 140.187663-402.29134z" p-id="3051"></path></svg>