<?xml version="1.0" standalone="no"?><!DOCTYPE svg PUBLIC "-//W3C//DTD SVG 1.1//EN" "http://www.w3.org/Graphics/SVG/1.1/DTD/svg11.dtd"><svg t="1573616758961" class="icon" viewBox="0 0 1299 1024" version="1.1" xmlns="http://www.w3.org/2000/svg" p-id="9779" xmlns:xlink="http://www.w3.org/1999/xlink" width="253.7109375" height="200"><defs><style type="text/css"></style></defs><path d="M1019.622798 545.425907c16.845596-16.845596 37.007254-28.650777 58.495337-35.150259V97.492228c0-38.466321-22.681865-67.912953-58.893265-67.912953H113.674611c-38.466321 0-76.932642 29.446632-76.932642 67.912953v565.985492h942.42487c-5.173057-42.047668 8.489119-86.084974 40.455959-118.051813zM786.437306 929.293264c-8.754404-7.693264-8.754404-22.018653 0-30.773057l8.754404-8.754404H580.045596v-90.594819h305.60829l90.594819-90.594818H36.741969v22.681865c0 38.466321 38.466321 67.912953 76.932642 67.912953h421.007254v90.594819H317.413472c-13.529534 0-22.681865 9.019689-22.681866 22.681865 0 13.529534 9.019689 22.681865 22.681866 22.681866h474.727461l-5.703627-5.83627z" fill="" p-id="9780"></path><path d="M886.847668 983.146114l197.106736-197.106736c49.475648 19.365803 108.766839 8.621762 148.559586-31.170984 43.108808-43.108808 51.73057-107.705699 26.926425-159.303627l-93.645596 93.645596-65.658031-65.658031 93.645595-93.645596c-51.73057-24.804145-116.327461-16.182383-159.303627 26.926425-39.792746 39.792746-50.66943 99.083938-31.170984 148.559585L806.201036 902.366839c-8.621762 8.621762-8.621762 22.549223 0 30.109845l50.66943 50.66943c7.427979 8.621762 21.35544 8.621762 29.977202 0z" fill="" p-id="9781"></path><path d="M439.577202 324.310881h28.120207v-75.73886H488.124352v75.73886h27.19171v20.029015H488.124352v86.615544c8.223834-3.581347 17.243523-8.091192 26.926425-13.131606v20.692228c-22.549223 12.070466-46.822798 22.151295-72.820725 30.109845l-5.173057-20.957513c11.672539-2.918135 21.88601-5.836269 30.640414-8.887047v-94.441451h-28.120207v-20.029015z m163.017617 127.867357c-28.120207 10.876684-58.495337 20.029016-91.258031 27.589638l-4.907772-19.763731c33.027979-5.703627 65.127461-14.590674 96.165803-26.395855v18.569948z m-87.013472-165.272539h101.604145c-0.132642-8.356477-0.265285-21.35544-0.265285-38.731606h20.029016c0 17.641451 0.132642 30.507772 0.265285 38.731606h29.313989c-4.377202-11.805181-8.621762-21.753368-12.601036-29.579274l18.702591-3.18342c3.846632 9.417617 7.560622 20.294301 11.141969 32.762694h14.060103V306.404145h-60.219689c0.928497 44.435233 2.918135 80.381347 5.968912 108.103627 11.539896-24.671503 20.294301-52.659067 26.395855-84.095337l17.774093 7.42798c-9.550259 43.374093-22.814508 79.320207-39.527461 107.838341 5.703627 27.19171 12.203109 41.251813 19.498446 42.445596 5.570984-0.53057 11.141969-14.988601 16.978238-43.374093l15.519171 12.601036c-9.152332 34.487047-20.029016 51.597927-32.364767 51.597928-9.417617 0-17.774093-7.427979-25.202072-22.416581-3.316062-7.030052-5.968912-13.927461-8.091192-20.426943-13.927461 18.172021-29.977202 32.762694-47.883938 43.904664l-12.601036-16.315026c21.620725-12.468394 39.792746-29.977202 54.516062-52.526425-1.326425-6.101554-2.65285-14.590674-3.979274-25.467358-3.581347-28.650777-5.968912-65.260104-6.89741-109.562694h-101.86943v-19.233161z m11.539897 48.016581h72.820725v80.911917h-72.820725v-80.911917z m54.516062 63.933679v-46.822798H545.160622v46.822798h36.476684z" fill="#FFFFFF" p-id="9782"></path></svg>