<?xml version="1.0" standalone="no"?><!DOCTYPE svg PUBLIC "-//W3C//DTD SVG 1.1//EN" "http://www.w3.org/Graphics/SVG/1.1/DTD/svg11.dtd"><svg t="1573616482925" class="icon" viewBox="0 0 1024 1024" version="1.1" xmlns="http://www.w3.org/2000/svg" p-id="6021" xmlns:xlink="http://www.w3.org/1999/xlink" width="200" height="200"><defs><style type="text/css"></style></defs><path d="M862.1 844.9c0 31-25.1 56-56 56H106l98-462c0-30.9 25-56 55.9-56h644.2c30.9 0 55.9 25.1 55.9 56l-97.9 406zM218 340.9h630v-55c0-30.9-25.1-56-56-56H456v-50.8c0-30.9-25.1-56-56-56H119.9c-30.9 0-56 25.1-56 56v665.8l97.9-448c0.1-31 25.3-56 56.2-56z" p-id="6022"></path></svg>