<?xml version="1.0" standalone="no"?><!DOCTYPE svg PUBLIC "-//W3C//DTD SVG 1.1//EN" "http://www.w3.org/Graphics/SVG/1.1/DTD/svg11.dtd"><svg t="1573616423155" class="icon" viewBox="0 0 1024 1024" version="1.1" xmlns="http://www.w3.org/2000/svg" p-id="3799" xmlns:xlink="http://www.w3.org/1999/xlink" width="200" height="200"><defs><style type="text/css"></style></defs><path d="M512.192 475.712a56.064 56.064 0 0 1-23.36-6.08L192.576 330.176a49.408 49.408 0 0 1 0-90.176l281.536-133.184a89.408 89.408 0 0 1 75.968 0l281.6 133.184a49.408 49.408 0 0 1 0 90.24L535.488 469.44a54.272 54.272 0 0 1-23.296 6.208z m-76.48 452.48a46.08 46.08 0 0 1-21.76-5.504l-267.648-125.44a50.816 50.816 0 0 1-27.328-45.632v-320a51.264 51.264 0 0 1 25.152-43.712 46.72 46.72 0 0 1 46.08 0l267.072 125.44a51.968 51.968 0 0 1 27.136 43.648v320.384a51.84 51.84 0 0 1-24.96 43.712 50.048 50.048 0 0 1-23.744 7.104z m152.896 0a48.64 48.64 0 0 1-23.808-6.272 51.84 51.84 0 0 1-24.96-43.712v-321.28a51.456 51.456 0 0 1 26.24-43.712l268.928-126.208a46.336 46.336 0 0 1 45.184 1.088c15.488 9.088 24.96 25.728 25.088 43.712v319.808a50.88 50.88 0 0 1-26.24 45.568L610.56 922.88a45.504 45.504 0 0 1-21.888 5.376z" p-id="3800"></path></svg>