<?xml version="1.0" standalone="no"?><!DOCTYPE svg PUBLIC "-//W3C//DTD SVG 1.1//EN" "http://www.w3.org/Graphics/SVG/1.1/DTD/svg11.dtd"><svg t="1578552684920" class="icon" viewBox="0 0 1024 1024" version="1.1" xmlns="http://www.w3.org/2000/svg" p-id="1322" xmlns:xlink="http://www.w3.org/1999/xlink" width="200" height="200"><defs><style type="text/css"></style></defs><path d="M846.4 217.6H177.6v588.8h667.2V217.6z m-32 32v270.4H752l-30.4-99.2-41.6 158.4-36.8-214.4-36.8 153.6h-72l-19.2 44.8-35.2-137.6-54.4 233.6-75.2-337.6-56 198.4h-84.8V249.6h604.8zM209.6 774.4V536h97.6l41.6-148.8 76.8 344L480 492.8l30.4 121.6 33.6-78.4h75.2l20.8-89.6L675.2 656l48-176 16 56h73.6v238.4H209.6z" fill="#707070" p-id="1323"></path></svg>