<?xml version="1.0" standalone="no"?><!DOCTYPE svg PUBLIC "-//W3C//DTD SVG 1.1//EN" "http://www.w3.org/Graphics/SVG/1.1/DTD/svg11.dtd"><svg t="1573616576054" class="icon" viewBox="0 0 1024 1024" version="1.1" xmlns="http://www.w3.org/2000/svg" p-id="7520" xmlns:xlink="http://www.w3.org/1999/xlink" width="200" height="200"><defs><style type="text/css"></style></defs><path d="M739.766776 210.907719V121.051751l89.965682 89.892539h-89.965682z m-17.919994 380.781578H338.724633c-19.931421 0-36.095987-15.615994-36.095987-34.815987 0-19.199993 16.164566-34.852559 36.095987-34.852559h383.122149c19.931421 0 36.095987 15.652566 36.095987 34.852559 0 19.199993-16.164566 34.815988-36.095987 34.815987z m0 190.683361H338.724633c-19.931421 0-36.095987-15.615994-36.095987-34.815988 0-19.199993 16.164566-34.815988 36.095987-34.815987h383.122149c19.931421 0 36.095987 15.615994 36.095987 34.815987 0 19.199993-16.164566 34.815988-36.095987 34.815988zM338.724633 331.33739h211.785068c19.931421 0 36.095987 15.615994 36.095987 34.815988 0 19.199993-16.164566 34.852559-36.095987 34.852559H338.724633c-19.931421 0-36.095987-15.652566-36.095987-34.852559 0-19.199993 16.164566-34.815988 36.095987-34.815988zM950.856986 246.272278a34.084559 34.084559 0 0 0-10.130282-24.722277L729.636494 10.642648a36.644558 36.644558 0 0 0-25.965705-10.605711l-2.486857-0.036571H145.810416C125.915566 0.000366 109.714429 15.61636 109.714429 34.816353v954.367659c0 19.199993 16.201137 34.815988 36.095987 34.815988h768.950583c19.89485 0 36.095987-15.615994 36.095987-34.815988V246.272278z" p-id="7521"></path></svg>