<?xml version="1.0" standalone="no"?><!DOCTYPE svg PUBLIC "-//W3C//DTD SVG 1.1//EN" "http://www.w3.org/Graphics/SVG/1.1/DTD/svg11.dtd"><svg t="1580895927606" class="icon" viewBox="0 0 1024 1024" version="1.1" xmlns="http://www.w3.org/2000/svg" p-id="2635" xmlns:xlink="http://www.w3.org/1999/xlink" width="200" height="200"><defs><style type="text/css"></style></defs><path d="M597.333333 264.746667a34.346667 34.346667 0 0 0-9.386666-23.893334v-1.066666a35.2 35.2 0 0 0-24.96-10.24H278.613333a35.413333 35.413333 0 0 0-35.413333 35.413333v176.64a35.84 35.84 0 0 0 35.413333 35.413333H561.066667a35.413333 35.413333 0 0 0 36.266666-35.626666v-176.64z m-283.52 35.413333h211.84v106.666667h-211.84zM278.613333 706.133333a35.413333 35.413333 0 0 0 0 70.613334h141.226667a35.413333 35.413333 0 0 0 0-70.613334zM597.333333 591.36a35.413333 35.413333 0 0 0-35.413333-35.413333H278.613333a35.413333 35.413333 0 0 0 0 70.613333H561.066667a35.413333 35.413333 0 0 0 36.266666-35.2z" p-id="2636"></path><path d="M868.906667 351.36V829.866667a53.12 53.12 0 0 1-52.906667 52.906666H190.293333a35.413333 35.413333 0 0 1-35.413333-35.413333V176.426667a35.413333 35.413333 0 0 1 35.413333-35.2h459.093334a35.413333 35.413333 0 0 1 35.413333 35.413333v579.84a35.413333 35.413333 0 0 0 70.613333 0V141.226667a70.613333 70.613333 0 0 0-70.613333-70.613334H155.093333A70.613333 70.613333 0 0 0 85.333333 141.226667v741.546666a70.613333 70.613333 0 0 0 70.613334 70.613334h661.333333a123.52 123.52 0 0 0 111.573333-70.613334A121.386667 121.386667 0 0 0 938.666667 829.866667V421.973333a70.613333 70.613333 0 0 0-69.76-70.613333z" p-id="2637"></path></svg>