<svg t="1573625109820" class="icon" viewBox="0 0 1024 1024" version="1.1" xmlns="http://www.w3.org/2000/svg" p-id="11934" width="200" height="200"><path d="M53.04 176.552h322.058c-0.614 0 98.488 115.159 98.488 115.159 12.995 15.401 35.848 26.082 55.945 26.082h441.628c-9.843 0-17.78-8.018-17.78-17.483v582.277c0-9.631 7.829-17.484 17.535-17.484H53.086c9.7 0 17.535 7.813 17.535 17.662V158.89c0 9.7-7.956 17.662-17.581 17.662zM0 882.765c0 29.199 23.828 52.96 53.086 52.96h917.828c29.344 0 53.086-23.814 53.086-53.138V300.31c0-29.377-23.52-53.138-52.841-53.138H529.53c0.769 0-98.29-115.158-98.29-115.158-13.017-15.428-35.95-26.083-56.143-26.083H53.04C23.65 105.931 0 129.601 0 158.89v723.875z" p-id="11935"></path></svg>