<?xml version="1.0" standalone="no"?><!DOCTYPE svg PUBLIC "-//W3C//DTD SVG 1.1//EN" "http://www.w3.org/Graphics/SVG/1.1/DTD/svg11.dtd"><svg t="1573616468891" class="icon" viewBox="0 0 1024 1024" version="1.1" xmlns="http://www.w3.org/2000/svg" p-id="5286" xmlns:xlink="http://www.w3.org/1999/xlink" width="200" height="200"><defs><style type="text/css"></style></defs><path d="M511.744 0C228.864 0 0 229.12 0 512s228.864 512 511.744 512C794.624 1024 1024 794.88 1024 512S794.624 0 511.744 0L511.744 0zM866.304 307.2l-151.04 0c-16.64-64-39.936-125.44-70.656-182.272C738.816 157.184 817.152 222.464 866.304 307.2L866.304 307.2zM512 104.192C554.752 165.632 588.032 233.984 609.728 307.2L414.208 307.2C435.968 233.984 469.248 165.632 512 104.192L512 104.192zM115.712 614.4C107.264 581.632 102.4 547.328 102.4 512s4.864-69.632 13.312-102.4l172.8 0C284.416 443.136 281.6 477.184 281.6 512s2.816 68.864 7.168 102.4L115.712 614.4 115.712 614.4zM157.44 716.8l151.04 0c16.64 64 39.936 125.44 70.656 182.528C284.928 867.072 206.592 801.536 157.44 716.8L157.44 716.8zM308.48 307.2 157.44 307.2c49.152-84.736 127.488-150.272 221.696-182.528C348.416 181.76 325.12 243.2 308.48 307.2L308.48 307.2zM512 919.808c-42.496-61.44-75.776-129.792-97.792-203.008l195.584 0C587.776 790.016 554.496 858.368 512 919.808L512 919.808zM631.808 614.4 392.192 614.4C387.328 580.864 384 546.816 384 512s3.328-68.864 8.192-102.4l239.616 0C636.672 443.136 640 477.184 640 512S636.672 580.864 631.808 614.4L631.808 614.4zM644.864 899.072c30.656-57.088 54.016-118.272 70.656-182.272l151.04 0C817.152 801.536 738.816 866.816 644.864 899.072L644.864 899.072zM735.168 614.4C739.328 580.864 742.4 546.816 742.4 512s-2.816-68.864-7.168-102.4l172.8 0c8.448 32.768 13.568 67.072 13.568 102.4s-4.8 69.632-13.568 102.4L735.168 614.4 735.168 614.4z" p-id="5287"></path></svg>