<?xml version="1.0" standalone="no"?><!DOCTYPE svg PUBLIC "-//W3C//DTD SVG 1.1//EN" "http://www.w3.org/Graphics/SVG/1.1/DTD/svg11.dtd"><svg t="1562121465295" class="icon" viewBox="0 0 1024 1024" version="1.1" xmlns="http://www.w3.org/2000/svg" p-id="2517" xmlns:xlink="http://www.w3.org/1999/xlink" width="32" height="32"><defs><style type="text/css"></style></defs><path d="M51.9 623.6m-47.5 0a47.5 47.5 0 1 0 95 0 47.5 47.5 0 1 0-95 0Z" fill="#ffffff" p-id="2518"></path><path d="M975.9 671.1H252.6c-26.1 0-47.5-21.4-47.5-47.5s21.4-47.5 47.5-47.5H976c26.1 0 47.5 21.4 47.5 47.5-0.1 26.1-21.4 47.5-47.6 47.5z" fill="#ffffff" p-id="2519"></path><path d="M51.9 847.1m-47.5 0a47.5 47.5 0 1 0 95 0 47.5 47.5 0 1 0-95 0Z" fill="#ffffff" p-id="2520"></path><path d="M975.9 894.6H252.6c-26.1 0-47.5-21.4-47.5-47.5s21.4-47.5 47.5-47.5H976c26.1 0 47.5 21.4 47.5 47.5-0.1 26.1-21.4 47.5-47.6 47.5z" fill="#ffffff" p-id="2521"></path><path d="M51.9 400m-47.5 0a47.5 47.5 0 1 0 95 0 47.5 47.5 0 1 0-95 0Z" fill="#ffffff" p-id="2522"></path><path d="M975.9 447.6H252.6c-26.1 0-47.5-21.4-47.5-47.5s21.4-47.5 47.5-47.5H976c26.1 0 47.5 21.4 47.5 47.5-0.1 26.1-21.4 47.5-47.6 47.5z" fill="#ffffff" p-id="2523"></path><path d="M51.9 176.5m-47.5 0a47.5 47.5 0 1 0 95 0 47.5 47.5 0 1 0-95 0Z" fill="#ffffff" p-id="2524"></path><path d="M975.9 224H252.6c-26.1 0-47.5-21.4-47.5-47.5s21.4-47.5 47.5-47.5H976c26.1 0 47.5 21.4 47.5 47.5-0.1 26.2-21.4 47.5-47.6 47.5z" fill="#ffffff" p-id="2525"></path></svg>