<?xml version="1.0" standalone="no"?><!DOCTYPE svg PUBLIC "-//W3C//DTD SVG 1.1//EN" "http://www.w3.org/Graphics/SVG/1.1/DTD/svg11.dtd"><svg t="1573616097826" class="icon" viewBox="0 0 1024 1024" version="1.1" xmlns="http://www.w3.org/2000/svg" p-id="843" xmlns:xlink="http://www.w3.org/1999/xlink" width="200" height="200"><defs><style type="text/css"></style></defs><path d="M323.36 355.04a185.28 76.96 0 1 0 370.56 0 185.28 76.96 0 1 0-370.56 0Z" p-id="844"></path><path d="M508.64 658.72c-92.64 0-169.12-28.32-182.88-65.12-1.6 20.64-2.4 45.6-2.4 76 0 42.56 82.88 77.12 185.28 77.12s185.44-34.56 185.44-77.12c0-30.4-0.8-55.68-2.24-76.64-13.28 37.12-90.08 65.76-183.2 65.76zM508.64 504.96c-92.64 0-169.12-28.32-182.88-65.12-1.6 20.64-2.4 45.6-2.4 76.16 0 42.4 82.88 76.96 185.28 76.96s185.44-34.56 185.44-76.96c0-30.56-0.8-55.84-2.24-76.8-13.28 37.12-90.08 65.76-183.2 65.76z" p-id="845"></path><path d="M512.96 144m-76 0a76 76 0 1 0 152 0 76 76 0 1 0-152 0Z" p-id="846"></path><path d="M143.04 511.04m-76 0a76 76 0 1 0 152 0 76 76 0 1 0-152 0Z" p-id="847"></path><path d="M510.08 880.96m-76 0a76 76 0 1 0 152 0 76 76 0 1 0-152 0Z" p-id="848"></path><path d="M880 513.92m-76 0a76 76 0 1 0 152 0 76 76 0 1 0-152 0Z" p-id="849"></path><path d="M512 121.28A390.72 390.72 0 1 0 902.72 512 390.88 390.88 0 0 0 512 121.28z m0 733.44A342.72 342.72 0 1 1 854.72 512 342.72 342.72 0 0 1 512 854.72z" p-id="850"></path></svg>