<?xml version="1.0" standalone="no"?><!DOCTYPE svg PUBLIC "-//W3C//DTD SVG 1.1//EN" "http://www.w3.org/Graphics/SVG/1.1/DTD/svg11.dtd"><svg t="1562123332819" class="icon" viewBox="0 0 1024 1024" version="1.1" xmlns="http://www.w3.org/2000/svg" p-id="6862" width="48" height="48" xmlns:xlink="http://www.w3.org/1999/xlink"><defs><style type="text/css"></style></defs><path d="M932.979873 632.376312h-64.339939v-71.853033c0-39.973145-36.100565-72.520219-80.497443-72.52022H547.897509V391.609184h73.811079a87.285336 87.285336 0 0 0 87.024263-87.024263V87.024263a87.285336 87.285336 0 0 0-87.024263-87.024263h-217.560658a87.285336 87.285336 0 0 0-87.024263 87.024263v217.560658a87.285336 87.285336 0 0 0 87.024263 87.024263H473.926885v96.422884H237.714027c-44.382374 0-80.497443 32.518066-80.497444 72.520219V632.376312H91.020127a87.285336 87.285336 0 0 0-87.024263 87.024263v217.560658a87.285336 87.285336 0 0 0 87.024263 87.024263h217.560658a87.285336 87.285336 0 0 0 87.024263-87.024263V719.400575a87.285336 87.285336 0 0 0-87.024263-87.024263h-77.393578v-71.853033a6.396283 6.396283 0 0 1 6.52682-5.801618h550.428464a6.381779 6.381779 0 0 1 6.52682 5.801618V632.376312H715.419215a87.285336 87.285336 0 0 0-87.024263 87.024263v217.560658a87.285336 87.285336 0 0 0 87.024263 87.024263h217.560658a87.285336 87.285336 0 0 0 87.024263-87.024263V719.400575a87.285336 87.285336 0 0 0-87.024263-87.024263zM391.09429 304.584921V87.024263a13.242192 13.242192 0 0 1 13.05364-13.053639h217.560658a13.227688 13.227688 0 0 1 13.053639 13.053639v217.560658a13.227688 13.227688 0 0 1-13.053639 13.053639h-217.560658a13.242192 13.242192 0 0 1-13.05364-13.053639zM321.634424 719.400575v217.560658a13.227688 13.227688 0 0 1-13.053639 13.053639H91.020127a13.227688 13.227688 0 0 1-13.053639-13.053639V719.400575a13.227688 13.227688 0 0 1 13.053639-13.053639h217.560658a13.227688 13.227688 0 0 1 13.053639 13.053639z m624.399088 217.560658a13.227688 13.227688 0 0 1-13.053639 13.053639h-217.560658a13.227688 13.227688 0 0 1-13.053639-13.053639V719.400575a13.227688 13.227688 0 0 1 13.053639-13.053639h217.560658a13.227688 13.227688 0 0 1 13.053639 13.053639z" fill="#ffffff" p-id="6863"></path></svg>