<?xml version="1.0" standalone="no"?><!DOCTYPE svg PUBLIC "-//W3C//DTD SVG 1.1//EN" "http://www.w3.org/Graphics/SVG/1.1/DTD/svg11.dtd"><svg t="1573616621382" class="icon" viewBox="0 0 1024 1024" version="1.1" xmlns="http://www.w3.org/2000/svg" p-id="9078" xmlns:xlink="http://www.w3.org/1999/xlink" width="200" height="200"><defs><style type="text/css"></style></defs><path d="M871.664 571.208l35.096-35.096-61.424-61.4-35.08 35.088c-21.936-17.544-48.256-26.312-78.952-30.696v-48.256H643.584v48.256c-26.328 4.384-52.64 17.544-78.96 30.696l-35.088-35.088-61.4 61.4 35.088 35.096c-13.16 21.936-26.32 48.24-30.696 78.952h-48.256v87.728h48.256c4.384 26.312 17.544 52.624 30.696 78.936l-35.088 30.704 61.4 61.424 35.088-35.104c21.928 17.552 48.248 26.32 78.96 30.704v48.256h87.72v-43.856c26.312-4.392 52.632-17.544 78.952-30.712l35.08 35.096 61.424-61.4-35.096-35.112c13.168-21.92 26.32-48.232 30.704-78.936h48.24V650.168h-48.24c-4.384-30.712-17.536-57.016-30.704-78.96z m-184.216 254.4c-70.184 0-131.584-61.408-131.584-131.576 0-74.576 61.4-131.592 131.584-131.592 74.56 0 131.576 57.016 131.576 131.592 0 70.168-57.016 131.576-131.576 131.576z" fill="" p-id="9079"></path><path d="M424.28 158.92L380.416 71.192H73.384v877.232h350.888v-87.736H161.112V334.352h701.792V422.08h87.712V158.92H424.28z" fill="" p-id="9080"></path></svg>