<?xml version="1.0" standalone="no"?><!DOCTYPE svg PUBLIC "-//W3C//DTD SVG 1.1//EN" "http://www.w3.org/Graphics/SVG/1.1/DTD/svg11.dtd"><svg t="1573616498988" class="icon" viewBox="0 0 1024 1024" version="1.1" xmlns="http://www.w3.org/2000/svg" p-id="6753" xmlns:xlink="http://www.w3.org/1999/xlink" width="200" height="200"><defs><style type="text/css"></style></defs><path d="M138.72 101.28A74.72 74.72 0 0 0 64 176v709.28a37.28 37.28 0 0 0 37.28 37.44h821.44A37.28 37.28 0 0 0 960 885.28V176a74.72 74.72 0 0 0-74.72-74.72z m0 186.72h746.56v560H138.72z m112 74.72a37.28 37.28 0 1 0-1.12 74.56h523.68a37.28 37.28 0 1 0 1.12-74.56H250.72z m0 149.28a37.44 37.44 0 0 0-37.44 37.28V736a37.28 37.28 0 0 0 37.44 37.28h186.56A37.28 37.28 0 0 0 474.72 736V549.28A37.44 37.44 0 0 0 437.28 512z m336 0a37.44 37.44 0 0 0-37.44 37.28V736a37.28 37.28 0 0 0 37.44 37.28h186.56A37.28 37.28 0 0 0 810.72 736V549.28A37.44 37.44 0 0 0 773.28 512z" p-id="6754"></path></svg>